<mxfile host="app.diagrams.net" modified="2021-12-08T08:05:38.270Z" agent="5.0 (X11; Linux x86_64) AppleWebKit/537.36 (KHTML, like Gecko) Chrome/96.0.4664.93 Safari/537.36" etag="UMk9CRfgAE9yeOjbYjJd" version="15.9.1" type="github" pages="2">
  <diagram id="E9fBT4m2V5TzD126yxOy" name="CDP_PTDL">
    <mxGraphModel dx="2455" dy="1405" grid="1" gridSize="10" guides="1" tooltips="1" connect="1" arrows="1" fold="1" page="1" pageScale="1" pageWidth="827" pageHeight="1169" math="0" shadow="0">
      <root>
        <mxCell id="0" />
        <mxCell id="1" parent="0" />
        <mxCell id="HtLVL3ucZdKSQipHc-B--118" style="edgeStyle=orthogonalEdgeStyle;rounded=0;orthogonalLoop=1;jettySize=auto;html=1;exitX=1;exitY=0.5;exitDx=0;exitDy=0;" parent="1" source="HtLVL3ucZdKSQipHc-B--117" edge="1">
          <mxGeometry relative="1" as="geometry">
            <mxPoint x="1910" y="590.3333333333335" as="targetPoint" />
          </mxGeometry>
        </mxCell>
        <mxCell id="HtLVL3ucZdKSQipHc-B--117" value="" style="rounded=0;whiteSpace=wrap;html=1;" parent="1" vertex="1">
          <mxGeometry x="420" y="70" width="1380" height="1040" as="geometry" />
        </mxCell>
        <mxCell id="HtLVL3ucZdKSQipHc-B--114" value="" style="rounded=1;whiteSpace=wrap;html=1;" parent="1" vertex="1">
          <mxGeometry x="1565" y="160" width="190" height="180" as="geometry" />
        </mxCell>
        <mxCell id="HtLVL3ucZdKSQipHc-B--90" value="" style="rounded=1;whiteSpace=wrap;html=1;" parent="1" vertex="1">
          <mxGeometry x="1910" y="530" width="195" height="190" as="geometry" />
        </mxCell>
        <mxCell id="HtLVL3ucZdKSQipHc-B--38" value="" style="rounded=1;whiteSpace=wrap;html=1;" parent="1" vertex="1">
          <mxGeometry x="1000" y="440" width="580" height="570" as="geometry" />
        </mxCell>
        <mxCell id="HtLVL3ucZdKSQipHc-B--84" style="edgeStyle=orthogonalEdgeStyle;rounded=0;orthogonalLoop=1;jettySize=auto;html=1;exitX=0.5;exitY=0;exitDx=0;exitDy=0;entryX=0.5;entryY=0;entryDx=0;entryDy=0;" parent="1" source="HtLVL3ucZdKSQipHc-B--38" target="HtLVL3ucZdKSQipHc-B--42" edge="1">
          <mxGeometry relative="1" as="geometry" />
        </mxCell>
        <mxCell id="HtLVL3ucZdKSQipHc-B--85" style="edgeStyle=orthogonalEdgeStyle;rounded=0;orthogonalLoop=1;jettySize=auto;html=1;exitX=0.5;exitY=0;exitDx=0;exitDy=0;entryX=0.5;entryY=0;entryDx=0;entryDy=0;" parent="1" source="HtLVL3ucZdKSQipHc-B--38" target="HtLVL3ucZdKSQipHc-B--49" edge="1">
          <mxGeometry relative="1" as="geometry" />
        </mxCell>
        <mxCell id="HtLVL3ucZdKSQipHc-B--86" style="edgeStyle=orthogonalEdgeStyle;rounded=0;orthogonalLoop=1;jettySize=auto;html=1;exitX=0.5;exitY=0;exitDx=0;exitDy=0;entryX=0.5;entryY=0;entryDx=0;entryDy=0;" parent="1" source="HtLVL3ucZdKSQipHc-B--38" target="HtLVL3ucZdKSQipHc-B--50" edge="1">
          <mxGeometry relative="1" as="geometry" />
        </mxCell>
        <mxCell id="HtLVL3ucZdKSQipHc-B--87" style="edgeStyle=orthogonalEdgeStyle;rounded=0;orthogonalLoop=1;jettySize=auto;html=1;exitX=0.5;exitY=0;exitDx=0;exitDy=0;entryX=0.5;entryY=0;entryDx=0;entryDy=0;" parent="1" source="HtLVL3ucZdKSQipHc-B--38" target="HtLVL3ucZdKSQipHc-B--51" edge="1">
          <mxGeometry relative="1" as="geometry" />
        </mxCell>
        <mxCell id="HtLVL3ucZdKSQipHc-B--63" style="edgeStyle=orthogonalEdgeStyle;rounded=0;orthogonalLoop=1;jettySize=auto;html=1;exitX=1;exitY=0.5;exitDx=0;exitDy=0;entryX=0;entryY=0.5;entryDx=0;entryDy=0;" parent="1" source="dM-LrjkzCSH52umCXKLX-1" target="dM-LrjkzCSH52umCXKLX-8" edge="1">
          <mxGeometry relative="1" as="geometry" />
        </mxCell>
        <mxCell id="dM-LrjkzCSH52umCXKLX-1" value="MB AL" style="rounded=1;whiteSpace=wrap;html=1;" parent="1" vertex="1">
          <mxGeometry x="150" y="630" width="120" height="40" as="geometry" />
        </mxCell>
        <mxCell id="HtLVL3ucZdKSQipHc-B--69" style="edgeStyle=orthogonalEdgeStyle;rounded=0;orthogonalLoop=1;jettySize=auto;html=1;exitX=1;exitY=0.5;exitDx=0;exitDy=0;entryX=0;entryY=0.5;entryDx=0;entryDy=0;" parent="1" source="dM-LrjkzCSH52umCXKLX-2" target="dM-LrjkzCSH52umCXKLX-8" edge="1">
          <mxGeometry relative="1" as="geometry" />
        </mxCell>
        <mxCell id="dM-LrjkzCSH52umCXKLX-2" value="MB Capital" style="rounded=1;whiteSpace=wrap;html=1;" parent="1" vertex="1">
          <mxGeometry x="150" y="310" width="120" height="40" as="geometry" />
        </mxCell>
        <mxCell id="HtLVL3ucZdKSQipHc-B--66" style="edgeStyle=orthogonalEdgeStyle;rounded=0;orthogonalLoop=1;jettySize=auto;html=1;exitX=1;exitY=0.25;exitDx=0;exitDy=0;entryX=0;entryY=0.5;entryDx=0;entryDy=0;" parent="1" source="dM-LrjkzCSH52umCXKLX-3" target="dM-LrjkzCSH52umCXKLX-8" edge="1">
          <mxGeometry relative="1" as="geometry" />
        </mxCell>
        <mxCell id="dM-LrjkzCSH52umCXKLX-3" value="MB Bank" style="rounded=1;whiteSpace=wrap;html=1;labelBackgroundColor=default;" parent="1" vertex="1">
          <mxGeometry x="150" y="230" width="120" height="40" as="geometry" />
        </mxCell>
        <mxCell id="HtLVL3ucZdKSQipHc-B--75" style="edgeStyle=orthogonalEdgeStyle;rounded=0;orthogonalLoop=1;jettySize=auto;html=1;exitX=1;exitY=0.5;exitDx=0;exitDy=0;entryX=0;entryY=0.5;entryDx=0;entryDy=0;" parent="1" source="dM-LrjkzCSH52umCXKLX-4" target="dM-LrjkzCSH52umCXKLX-8" edge="1">
          <mxGeometry relative="1" as="geometry" />
        </mxCell>
        <mxCell id="dM-LrjkzCSH52umCXKLX-4" value="MCredit" style="rounded=1;whiteSpace=wrap;html=1;" parent="1" vertex="1">
          <mxGeometry x="150" y="390" width="120" height="40" as="geometry" />
        </mxCell>
        <mxCell id="HtLVL3ucZdKSQipHc-B--65" style="edgeStyle=orthogonalEdgeStyle;rounded=0;orthogonalLoop=1;jettySize=auto;html=1;exitX=1;exitY=0.5;exitDx=0;exitDy=0;entryX=0;entryY=0.5;entryDx=0;entryDy=0;" parent="1" source="dM-LrjkzCSH52umCXKLX-5" target="dM-LrjkzCSH52umCXKLX-8" edge="1">
          <mxGeometry relative="1" as="geometry" />
        </mxCell>
        <mxCell id="dM-LrjkzCSH52umCXKLX-5" value="MIC" style="rounded=1;whiteSpace=wrap;html=1;" parent="1" vertex="1">
          <mxGeometry x="150" y="470" width="120" height="40" as="geometry" />
        </mxCell>
        <mxCell id="HtLVL3ucZdKSQipHc-B--64" style="edgeStyle=orthogonalEdgeStyle;rounded=0;orthogonalLoop=1;jettySize=auto;html=1;exitX=1;exitY=0.5;exitDx=0;exitDy=0;entryX=0;entryY=0.5;entryDx=0;entryDy=0;" parent="1" source="dM-LrjkzCSH52umCXKLX-6" target="dM-LrjkzCSH52umCXKLX-8" edge="1">
          <mxGeometry relative="1" as="geometry" />
        </mxCell>
        <mxCell id="dM-LrjkzCSH52umCXKLX-6" value="MBS" style="rounded=1;whiteSpace=wrap;html=1;" parent="1" vertex="1">
          <mxGeometry x="150" y="550" width="120" height="40" as="geometry" />
        </mxCell>
        <mxCell id="HtLVL3ucZdKSQipHc-B--82" style="edgeStyle=orthogonalEdgeStyle;rounded=0;orthogonalLoop=1;jettySize=auto;html=1;exitX=1;exitY=0.5;exitDx=0;exitDy=0;entryX=0.5;entryY=0;entryDx=0;entryDy=0;" parent="1" source="dM-LrjkzCSH52umCXKLX-8" target="HtLVL3ucZdKSQipHc-B--38" edge="1">
          <mxGeometry relative="1" as="geometry" />
        </mxCell>
        <mxCell id="HtLVL3ucZdKSQipHc-B--116" style="edgeStyle=orthogonalEdgeStyle;rounded=0;orthogonalLoop=1;jettySize=auto;html=1;exitX=1;exitY=0.25;exitDx=0;exitDy=0;entryX=-0.022;entryY=0.389;entryDx=0;entryDy=0;entryPerimeter=0;" parent="1" source="dM-LrjkzCSH52umCXKLX-8" target="HtLVL3ucZdKSQipHc-B--114" edge="1">
          <mxGeometry relative="1" as="geometry">
            <mxPoint x="1560" y="230" as="targetPoint" />
          </mxGeometry>
        </mxCell>
        <mxCell id="dM-LrjkzCSH52umCXKLX-8" value="" style="rounded=1;whiteSpace=wrap;html=1;" parent="1" vertex="1">
          <mxGeometry x="480" y="230" width="350" height="230" as="geometry" />
        </mxCell>
        <mxCell id="dM-LrjkzCSH52umCXKLX-9" value="VDP" style="text;html=1;strokeColor=none;fillColor=none;align=center;verticalAlign=middle;whiteSpace=wrap;rounded=0;fontSize=20;fontColor=#000000;fontStyle=1" parent="1" vertex="1">
          <mxGeometry x="460" y="240" width="130" height="30" as="geometry" />
        </mxCell>
        <mxCell id="dM-LrjkzCSH52umCXKLX-10" value="HDFS" style="rounded=1;whiteSpace=wrap;html=1;" parent="1" vertex="1">
          <mxGeometry x="507.5" y="380" width="295" height="30" as="geometry" />
        </mxCell>
        <mxCell id="HtLVL3ucZdKSQipHc-B--79" style="edgeStyle=orthogonalEdgeStyle;rounded=0;orthogonalLoop=1;jettySize=auto;html=1;exitX=0.5;exitY=1;exitDx=0;exitDy=0;entryX=0.882;entryY=0;entryDx=0;entryDy=0;entryPerimeter=0;" parent="1" source="dM-LrjkzCSH52umCXKLX-12" target="dM-LrjkzCSH52umCXKLX-10" edge="1">
          <mxGeometry relative="1" as="geometry" />
        </mxCell>
        <mxCell id="dM-LrjkzCSH52umCXKLX-12" value="ETL&lt;br&gt;(spark)" style="rhombus;whiteSpace=wrap;html=1;" parent="1" vertex="1">
          <mxGeometry x="720" y="263.75" width="90" height="80" as="geometry" />
        </mxCell>
        <mxCell id="dM-LrjkzCSH52umCXKLX-13" value="" style="rounded=1;whiteSpace=wrap;html=1;" parent="1" vertex="1">
          <mxGeometry x="450" y="580" width="410" height="290" as="geometry" />
        </mxCell>
        <mxCell id="HtLVL3ucZdKSQipHc-B--103" style="edgeStyle=orthogonalEdgeStyle;rounded=0;orthogonalLoop=1;jettySize=auto;html=1;exitX=0.5;exitY=1;exitDx=0;exitDy=0;entryX=0.5;entryY=0;entryDx=0;entryDy=0;" parent="1" source="dM-LrjkzCSH52umCXKLX-20" target="dM-LrjkzCSH52umCXKLX-21" edge="1">
          <mxGeometry relative="1" as="geometry" />
        </mxCell>
        <mxCell id="dM-LrjkzCSH52umCXKLX-20" value="Unifed Data" style="rounded=1;whiteSpace=wrap;html=1;" parent="1" vertex="1">
          <mxGeometry x="1122.5" y="550" width="360" height="30" as="geometry" />
        </mxCell>
        <mxCell id="HtLVL3ucZdKSQipHc-B--104" style="edgeStyle=orthogonalEdgeStyle;rounded=0;orthogonalLoop=1;jettySize=auto;html=1;exitX=0.5;exitY=1;exitDx=0;exitDy=0;entryX=0.5;entryY=0;entryDx=0;entryDy=0;" parent="1" source="dM-LrjkzCSH52umCXKLX-21" target="HtLVL3ucZdKSQipHc-B--96" edge="1">
          <mxGeometry relative="1" as="geometry" />
        </mxCell>
        <mxCell id="HtLVL3ucZdKSQipHc-B--105" style="edgeStyle=orthogonalEdgeStyle;rounded=0;orthogonalLoop=1;jettySize=auto;html=1;exitX=0;exitY=0.5;exitDx=0;exitDy=0;entryX=0.5;entryY=0;entryDx=0;entryDy=0;" parent="1" source="dM-LrjkzCSH52umCXKLX-21" target="HtLVL3ucZdKSQipHc-B--95" edge="1">
          <mxGeometry relative="1" as="geometry" />
        </mxCell>
        <mxCell id="HtLVL3ucZdKSQipHc-B--106" style="edgeStyle=orthogonalEdgeStyle;rounded=0;orthogonalLoop=1;jettySize=auto;html=1;exitX=1;exitY=0.5;exitDx=0;exitDy=0;entryX=0.5;entryY=0;entryDx=0;entryDy=0;" parent="1" source="dM-LrjkzCSH52umCXKLX-21" target="HtLVL3ucZdKSQipHc-B--97" edge="1">
          <mxGeometry relative="1" as="geometry" />
        </mxCell>
        <mxCell id="dM-LrjkzCSH52umCXKLX-21" value="Analytic" style="rhombus;whiteSpace=wrap;html=1;fontSize=15;fontStyle=1" parent="1" vertex="1">
          <mxGeometry x="1240" y="620" width="125" height="120" as="geometry" />
        </mxCell>
        <mxCell id="dM-LrjkzCSH52umCXKLX-24" value="Data Analytics&lt;br style=&quot;font-size: 20px;&quot;&gt;" style="text;html=1;strokeColor=none;fillColor=none;align=center;verticalAlign=middle;whiteSpace=wrap;rounded=0;fontSize=20;fontColor=#000000;fontStyle=1" parent="1" vertex="1">
          <mxGeometry x="1030" y="460" width="140" height="30" as="geometry" />
        </mxCell>
        <mxCell id="HtLVL3ucZdKSQipHc-B--77" style="edgeStyle=orthogonalEdgeStyle;rounded=0;orthogonalLoop=1;jettySize=auto;html=1;exitX=1;exitY=0.5;exitDx=0;exitDy=0;entryX=0;entryY=0.5;entryDx=0;entryDy=0;" parent="1" source="HtLVL3ucZdKSQipHc-B--2" target="dM-LrjkzCSH52umCXKLX-12" edge="1">
          <mxGeometry relative="1" as="geometry" />
        </mxCell>
        <mxCell id="HtLVL3ucZdKSQipHc-B--80" style="edgeStyle=orthogonalEdgeStyle;rounded=0;orthogonalLoop=1;jettySize=auto;html=1;exitX=0.5;exitY=1;exitDx=0;exitDy=0;entryX=0.25;entryY=0;entryDx=0;entryDy=0;" parent="1" source="HtLVL3ucZdKSQipHc-B--2" target="dM-LrjkzCSH52umCXKLX-10" edge="1">
          <mxGeometry relative="1" as="geometry" />
        </mxCell>
        <mxCell id="HtLVL3ucZdKSQipHc-B--2" value="&lt;span&gt;Nifi&lt;/span&gt;&lt;br&gt;&lt;span&gt;Spark&lt;/span&gt;&lt;br&gt;&lt;span&gt;Kafka&lt;/span&gt;" style="rounded=1;whiteSpace=wrap;html=1;" parent="1" vertex="1">
          <mxGeometry x="480" y="316.25" width="180" height="47.5" as="geometry" />
        </mxCell>
        <mxCell id="HtLVL3ucZdKSQipHc-B--6" value="" style="rounded=0;whiteSpace=wrap;html=1;" parent="1" vertex="1">
          <mxGeometry x="1160" y="490" width="50" height="20" as="geometry" />
        </mxCell>
        <mxCell id="HtLVL3ucZdKSQipHc-B--7" value="" style="rounded=0;whiteSpace=wrap;html=1;" parent="1" vertex="1">
          <mxGeometry x="1240" y="490" width="50" height="20" as="geometry" />
        </mxCell>
        <mxCell id="HtLVL3ucZdKSQipHc-B--8" value="" style="rounded=0;whiteSpace=wrap;html=1;" parent="1" vertex="1">
          <mxGeometry x="1320" y="490" width="50" height="20" as="geometry" />
        </mxCell>
        <mxCell id="HtLVL3ucZdKSQipHc-B--9" value="" style="rounded=0;whiteSpace=wrap;html=1;" parent="1" vertex="1">
          <mxGeometry x="1400" y="490" width="50" height="20" as="geometry" />
        </mxCell>
        <mxCell id="HtLVL3ucZdKSQipHc-B--17" value="Reports" style="rounded=1;whiteSpace=wrap;html=1;" parent="1" vertex="1">
          <mxGeometry x="1580" y="230" width="160" height="40" as="geometry" />
        </mxCell>
        <mxCell id="HtLVL3ucZdKSQipHc-B--18" value="Customer 360" style="rounded=1;whiteSpace=wrap;html=1;" parent="1" vertex="1">
          <mxGeometry x="1580" y="270" width="160" height="40" as="geometry" />
        </mxCell>
        <mxCell id="HtLVL3ucZdKSQipHc-B--22" value="FTP Server" style="rounded=1;whiteSpace=wrap;html=1;" parent="1" vertex="1">
          <mxGeometry x="1927.5" y="590" width="160" height="40" as="geometry" />
        </mxCell>
        <mxCell id="HtLVL3ucZdKSQipHc-B--24" value="Web Service" style="rounded=1;whiteSpace=wrap;html=1;" parent="1" vertex="1">
          <mxGeometry x="1927.5" y="630" width="160" height="40" as="geometry" />
        </mxCell>
        <mxCell id="HtLVL3ucZdKSQipHc-B--25" value="MB Systems" style="rounded=1;whiteSpace=wrap;html=1;" parent="1" vertex="1">
          <mxGeometry x="1927.5" y="665" width="160" height="40" as="geometry" />
        </mxCell>
        <mxCell id="HtLVL3ucZdKSQipHc-B--30" value="Data Prep" style="rounded=1;whiteSpace=wrap;html=1;" parent="1" vertex="1">
          <mxGeometry x="470" y="640" width="120" height="30" as="geometry" />
        </mxCell>
        <mxCell id="HtLVL3ucZdKSQipHc-B--31" value="Train &amp;amp; Tune" style="rounded=1;whiteSpace=wrap;html=1;" parent="1" vertex="1">
          <mxGeometry x="600" y="640" width="120" height="30" as="geometry" />
        </mxCell>
        <mxCell id="HtLVL3ucZdKSQipHc-B--32" value="Deploy &amp;amp; Monitor" style="rounded=1;whiteSpace=wrap;html=1;" parent="1" vertex="1">
          <mxGeometry x="730" y="640" width="120" height="30" as="geometry" />
        </mxCell>
        <mxCell id="HtLVL3ucZdKSQipHc-B--33" value="Collect&lt;br&gt;Prepare&lt;br&gt;(Explore &amp;amp; valid, balance, clean, normalize, standardize, ...)&lt;br&gt;Label&lt;br&gt;Data Spliting" style="rounded=1;whiteSpace=wrap;html=1;" parent="1" vertex="1">
          <mxGeometry x="480" y="670" width="100" height="190" as="geometry" />
        </mxCell>
        <mxCell id="HtLVL3ucZdKSQipHc-B--34" value="Training&lt;br&gt;Validation&lt;br&gt;Testing&lt;br&gt;Turning" style="rounded=1;whiteSpace=wrap;html=1;" parent="1" vertex="1">
          <mxGeometry x="610" y="670" width="100" height="190" as="geometry" />
        </mxCell>
        <mxCell id="HtLVL3ucZdKSQipHc-B--35" value="Serving&lt;br&gt;Monitor&lt;br&gt;Logging&lt;br&gt;" style="rounded=1;whiteSpace=wrap;html=1;" parent="1" vertex="1">
          <mxGeometry x="740" y="670" width="100" height="190" as="geometry" />
        </mxCell>
        <mxCell id="HtLVL3ucZdKSQipHc-B--113" style="edgeStyle=orthogonalEdgeStyle;rounded=0;orthogonalLoop=1;jettySize=auto;html=1;exitX=0.5;exitY=1;exitDx=0;exitDy=0;exitPerimeter=0;" parent="1" source="HtLVL3ucZdKSQipHc-B--40" edge="1">
          <mxGeometry relative="1" as="geometry">
            <mxPoint x="1660" y="340" as="targetPoint" />
            <Array as="points">
              <mxPoint x="1303" y="1050" />
              <mxPoint x="1660" y="1050" />
            </Array>
          </mxGeometry>
        </mxCell>
        <mxCell id="HtLVL3ucZdKSQipHc-B--40" value="Database" style="shape=cylinder3;whiteSpace=wrap;html=1;boundedLbl=1;backgroundOutline=1;size=15;fontSize=15;fontStyle=1" parent="1" vertex="1">
          <mxGeometry x="1257.5" y="850" width="90" height="120" as="geometry" />
        </mxCell>
        <mxCell id="HtLVL3ucZdKSQipHc-B--98" style="edgeStyle=orthogonalEdgeStyle;rounded=0;orthogonalLoop=1;jettySize=auto;html=1;exitX=0.5;exitY=1;exitDx=0;exitDy=0;entryX=0.174;entryY=0.045;entryDx=0;entryDy=0;entryPerimeter=0;" parent="1" source="HtLVL3ucZdKSQipHc-B--42" target="dM-LrjkzCSH52umCXKLX-20" edge="1">
          <mxGeometry relative="1" as="geometry" />
        </mxCell>
        <mxCell id="HtLVL3ucZdKSQipHc-B--42" value="Data" style="text;html=1;strokeColor=none;fillColor=none;align=center;verticalAlign=middle;whiteSpace=wrap;rounded=0;" parent="1" vertex="1">
          <mxGeometry x="1155" y="485" width="60" height="30" as="geometry" />
        </mxCell>
        <mxCell id="HtLVL3ucZdKSQipHc-B--100" style="edgeStyle=orthogonalEdgeStyle;rounded=0;orthogonalLoop=1;jettySize=auto;html=1;exitX=0.5;exitY=1;exitDx=0;exitDy=0;entryX=0.401;entryY=0.045;entryDx=0;entryDy=0;entryPerimeter=0;" parent="1" source="HtLVL3ucZdKSQipHc-B--49" target="dM-LrjkzCSH52umCXKLX-20" edge="1">
          <mxGeometry relative="1" as="geometry" />
        </mxCell>
        <mxCell id="HtLVL3ucZdKSQipHc-B--49" value="Data" style="text;html=1;strokeColor=none;fillColor=none;align=center;verticalAlign=middle;whiteSpace=wrap;rounded=0;" parent="1" vertex="1">
          <mxGeometry x="1235" y="485" width="60" height="30" as="geometry" />
        </mxCell>
        <mxCell id="HtLVL3ucZdKSQipHc-B--101" style="edgeStyle=orthogonalEdgeStyle;rounded=0;orthogonalLoop=1;jettySize=auto;html=1;exitX=0.5;exitY=1;exitDx=0;exitDy=0;entryX=0.629;entryY=0.045;entryDx=0;entryDy=0;entryPerimeter=0;" parent="1" source="HtLVL3ucZdKSQipHc-B--50" target="dM-LrjkzCSH52umCXKLX-20" edge="1">
          <mxGeometry relative="1" as="geometry" />
        </mxCell>
        <mxCell id="HtLVL3ucZdKSQipHc-B--50" value="Data" style="text;html=1;strokeColor=none;fillColor=none;align=center;verticalAlign=middle;whiteSpace=wrap;rounded=0;" parent="1" vertex="1">
          <mxGeometry x="1315" y="485" width="60" height="30" as="geometry" />
        </mxCell>
        <mxCell id="HtLVL3ucZdKSQipHc-B--102" style="edgeStyle=orthogonalEdgeStyle;rounded=0;orthogonalLoop=1;jettySize=auto;html=1;exitX=0.5;exitY=1;exitDx=0;exitDy=0;entryX=0.846;entryY=-0.04;entryDx=0;entryDy=0;entryPerimeter=0;" parent="1" source="HtLVL3ucZdKSQipHc-B--51" target="dM-LrjkzCSH52umCXKLX-20" edge="1">
          <mxGeometry relative="1" as="geometry" />
        </mxCell>
        <mxCell id="HtLVL3ucZdKSQipHc-B--51" value="Data" style="text;html=1;strokeColor=none;fillColor=none;align=center;verticalAlign=middle;whiteSpace=wrap;rounded=0;" parent="1" vertex="1">
          <mxGeometry x="1395" y="485" width="60" height="30" as="geometry" />
        </mxCell>
        <mxCell id="HtLVL3ucZdKSQipHc-B--61" value="Coordinator" style="rounded=1;whiteSpace=wrap;html=1;" parent="1" vertex="1">
          <mxGeometry x="564" y="410" width="177" height="40" as="geometry" />
        </mxCell>
        <mxCell id="HtLVL3ucZdKSQipHc-B--110" style="edgeStyle=orthogonalEdgeStyle;rounded=0;orthogonalLoop=1;jettySize=auto;html=1;exitX=0.5;exitY=1;exitDx=0;exitDy=0;entryX=0;entryY=0;entryDx=0;entryDy=15;entryPerimeter=0;" parent="1" source="HtLVL3ucZdKSQipHc-B--95" target="HtLVL3ucZdKSQipHc-B--40" edge="1">
          <mxGeometry relative="1" as="geometry" />
        </mxCell>
        <mxCell id="HtLVL3ucZdKSQipHc-B--95" value="Data" style="rounded=0;whiteSpace=wrap;html=1;" parent="1" vertex="1">
          <mxGeometry x="1155" y="780" width="70" height="20" as="geometry" />
        </mxCell>
        <mxCell id="HtLVL3ucZdKSQipHc-B--109" style="edgeStyle=orthogonalEdgeStyle;rounded=0;orthogonalLoop=1;jettySize=auto;html=1;exitX=0.5;exitY=1;exitDx=0;exitDy=0;entryX=0.5;entryY=0;entryDx=0;entryDy=0;entryPerimeter=0;" parent="1" source="HtLVL3ucZdKSQipHc-B--96" target="HtLVL3ucZdKSQipHc-B--40" edge="1">
          <mxGeometry relative="1" as="geometry" />
        </mxCell>
        <mxCell id="HtLVL3ucZdKSQipHc-B--96" value="Data" style="rounded=0;whiteSpace=wrap;html=1;" parent="1" vertex="1">
          <mxGeometry x="1267.5" y="780" width="70" height="20" as="geometry" />
        </mxCell>
        <mxCell id="HtLVL3ucZdKSQipHc-B--108" style="edgeStyle=orthogonalEdgeStyle;rounded=0;orthogonalLoop=1;jettySize=auto;html=1;exitX=0.5;exitY=1;exitDx=0;exitDy=0;entryX=1;entryY=0;entryDx=0;entryDy=15;entryPerimeter=0;" parent="1" source="HtLVL3ucZdKSQipHc-B--97" target="HtLVL3ucZdKSQipHc-B--40" edge="1">
          <mxGeometry relative="1" as="geometry">
            <mxPoint x="1300" y="850" as="targetPoint" />
          </mxGeometry>
        </mxCell>
        <mxCell id="HtLVL3ucZdKSQipHc-B--97" value="Data" style="rounded=0;whiteSpace=wrap;html=1;" parent="1" vertex="1">
          <mxGeometry x="1385" y="780" width="70" height="20" as="geometry" />
        </mxCell>
        <mxCell id="HtLVL3ucZdKSQipHc-B--112" value="" style="endArrow=none;dashed=1;html=1;rounded=0;entryX=0;entryY=0;entryDx=0;entryDy=0;" parent="1" target="dM-LrjkzCSH52umCXKLX-21" edge="1">
          <mxGeometry width="50" height="50" relative="1" as="geometry">
            <mxPoint x="860" y="650" as="sourcePoint" />
            <mxPoint x="940" y="630" as="targetPoint" />
          </mxGeometry>
        </mxCell>
        <mxCell id="HtLVL3ucZdKSQipHc-B--115" value="Web Systems" style="text;html=1;strokeColor=none;fillColor=none;align=center;verticalAlign=middle;whiteSpace=wrap;rounded=0;fontSize=20;fontColor=#000000;fontStyle=1" parent="1" vertex="1">
          <mxGeometry x="1580" y="170" width="140" height="30" as="geometry" />
        </mxCell>
        <mxCell id="HtLVL3ucZdKSQipHc-B--119" value="External Systems" style="text;html=1;strokeColor=none;fillColor=none;align=center;verticalAlign=middle;whiteSpace=wrap;rounded=0;fontSize=20;fontColor=#000000;fontStyle=1" parent="1" vertex="1">
          <mxGeometry x="1920" y="540" width="170" height="30" as="geometry" />
        </mxCell>
        <mxCell id="HtLVL3ucZdKSQipHc-B--120" value="Analytic Details" style="text;html=1;strokeColor=none;fillColor=none;align=center;verticalAlign=middle;whiteSpace=wrap;rounded=0;fontSize=20;fontColor=#000000;fontStyle=1" parent="1" vertex="1">
          <mxGeometry x="474" y="590" width="166" height="30" as="geometry" />
        </mxCell>
        <mxCell id="HtLVL3ucZdKSQipHc-B--122" value="Data" style="text;html=1;strokeColor=none;fillColor=none;align=center;verticalAlign=middle;whiteSpace=wrap;rounded=0;" parent="1" vertex="1">
          <mxGeometry x="1070" y="260" width="60" height="30" as="geometry" />
        </mxCell>
        <mxCell id="HtLVL3ucZdKSQipHc-B--124" value="Data" style="text;html=1;strokeColor=none;fillColor=none;align=center;verticalAlign=middle;whiteSpace=wrap;rounded=0;" parent="1" vertex="1">
          <mxGeometry x="1235" y="313.75" width="60" height="30" as="geometry" />
        </mxCell>
        <mxCell id="HtLVL3ucZdKSQipHc-B--126" value="Profiling" style="text;html=1;strokeColor=none;fillColor=none;align=center;verticalAlign=middle;whiteSpace=wrap;rounded=0;" parent="1" vertex="1">
          <mxGeometry x="1110" y="720" width="83" height="30" as="geometry" />
        </mxCell>
        <mxCell id="HtLVL3ucZdKSQipHc-B--127" value="Segmentation" style="text;html=1;strokeColor=none;fillColor=none;align=center;verticalAlign=middle;whiteSpace=wrap;rounded=0;" parent="1" vertex="1">
          <mxGeometry x="1312" y="740" width="83" height="30" as="geometry" />
        </mxCell>
        <mxCell id="HtLVL3ucZdKSQipHc-B--128" value="Recommendation" style="text;html=1;strokeColor=none;fillColor=none;align=center;verticalAlign=middle;whiteSpace=wrap;rounded=0;" parent="1" vertex="1">
          <mxGeometry x="1430" y="720" width="83" height="30" as="geometry" />
        </mxCell>
        <mxCell id="HtLVL3ucZdKSQipHc-B--129" value="Viettel CDP" style="text;html=1;strokeColor=none;fillColor=none;align=center;verticalAlign=middle;whiteSpace=wrap;rounded=0;fontSize=25;fontColor=#FF0000;fontStyle=1" parent="1" vertex="1">
          <mxGeometry x="380" y="90" width="270" height="30" as="geometry" />
        </mxCell>
      </root>
    </mxGraphModel>
  </diagram>
  <diagram id="GAi5b1Ti1RXrOncuOjGP" name="ML Cycle">
    <mxGraphModel dx="2415" dy="909" grid="1" gridSize="10" guides="1" tooltips="1" connect="1" arrows="1" fold="1" page="1" pageScale="1" pageWidth="827" pageHeight="1169" math="0" shadow="0">
      <root>
        <mxCell id="RoITaQhxtd_KHU8ortIy-0" />
        <mxCell id="RoITaQhxtd_KHU8ortIy-1" parent="RoITaQhxtd_KHU8ortIy-0" />
        <mxCell id="m1fZNd1MBSAcWRnVujyi-61" value="" style="rounded=0;whiteSpace=wrap;html=1;fontSize=10;" vertex="1" parent="RoITaQhxtd_KHU8ortIy-1">
          <mxGeometry y="160" width="1360" height="800" as="geometry" />
        </mxCell>
        <mxCell id="m1fZNd1MBSAcWRnVujyi-49" value="" style="rounded=1;whiteSpace=wrap;html=1;fillColor=#fff2cc;strokeColor=#d6b656;" vertex="1" parent="RoITaQhxtd_KHU8ortIy-1">
          <mxGeometry x="900" y="250" width="420" height="600" as="geometry" />
        </mxCell>
        <mxCell id="m1fZNd1MBSAcWRnVujyi-48" value="" style="rounded=1;whiteSpace=wrap;html=1;fillColor=#d5e8d4;strokeColor=#82b366;" vertex="1" parent="RoITaQhxtd_KHU8ortIy-1">
          <mxGeometry x="80" y="780" width="810" height="140" as="geometry" />
        </mxCell>
        <mxCell id="m1fZNd1MBSAcWRnVujyi-47" value="" style="rounded=1;whiteSpace=wrap;html=1;fillColor=#f5f5f5;fontColor=#333333;strokeColor=#666666;" vertex="1" parent="RoITaQhxtd_KHU8ortIy-1">
          <mxGeometry x="10" y="280" width="600" height="481.25" as="geometry" />
        </mxCell>
        <mxCell id="m1fZNd1MBSAcWRnVujyi-26" style="edgeStyle=orthogonalEdgeStyle;rounded=0;orthogonalLoop=1;jettySize=auto;html=1;exitX=1;exitY=0.5;exitDx=0;exitDy=0;entryX=0;entryY=0.5;entryDx=0;entryDy=0;" edge="1" parent="RoITaQhxtd_KHU8ortIy-1" source="m1fZNd1MBSAcWRnVujyi-21" target="m1fZNd1MBSAcWRnVujyi-3">
          <mxGeometry relative="1" as="geometry" />
        </mxCell>
        <mxCell id="m1fZNd1MBSAcWRnVujyi-21" value="" style="rounded=1;whiteSpace=wrap;html=1;" vertex="1" parent="RoITaQhxtd_KHU8ortIy-1">
          <mxGeometry x="40" y="360" width="80" height="150" as="geometry" />
        </mxCell>
        <mxCell id="m1fZNd1MBSAcWRnVujyi-0" value="" style="shape=cylinder3;whiteSpace=wrap;html=1;boundedLbl=1;backgroundOutline=1;size=15;" vertex="1" parent="RoITaQhxtd_KHU8ortIy-1">
          <mxGeometry x="55" y="377.5" width="40" height="60" as="geometry" />
        </mxCell>
        <mxCell id="m1fZNd1MBSAcWRnVujyi-1" value="" style="ellipse;shape=cloud;whiteSpace=wrap;html=1;" vertex="1" parent="RoITaQhxtd_KHU8ortIy-1">
          <mxGeometry x="52.5" y="452.5" width="57.5" height="47.5" as="geometry" />
        </mxCell>
        <mxCell id="m1fZNd1MBSAcWRnVujyi-27" style="edgeStyle=orthogonalEdgeStyle;rounded=0;orthogonalLoop=1;jettySize=auto;html=1;exitX=1;exitY=0.5;exitDx=0;exitDy=0;entryX=0;entryY=0.5;entryDx=0;entryDy=0;" edge="1" parent="RoITaQhxtd_KHU8ortIy-1" source="m1fZNd1MBSAcWRnVujyi-3" target="m1fZNd1MBSAcWRnVujyi-4">
          <mxGeometry relative="1" as="geometry" />
        </mxCell>
        <mxCell id="m1fZNd1MBSAcWRnVujyi-3" value="Exploration &lt;br&gt;&amp;amp; Validation" style="rhombus;whiteSpace=wrap;html=1;" vertex="1" parent="RoITaQhxtd_KHU8ortIy-1">
          <mxGeometry x="180" y="390" width="120" height="95" as="geometry" />
        </mxCell>
        <mxCell id="m1fZNd1MBSAcWRnVujyi-28" style="edgeStyle=orthogonalEdgeStyle;rounded=0;orthogonalLoop=1;jettySize=auto;html=1;exitX=0.5;exitY=1;exitDx=0;exitDy=0;entryX=0.5;entryY=0;entryDx=0;entryDy=0;entryPerimeter=0;" edge="1" parent="RoITaQhxtd_KHU8ortIy-1" source="m1fZNd1MBSAcWRnVujyi-4" target="m1fZNd1MBSAcWRnVujyi-6">
          <mxGeometry relative="1" as="geometry" />
        </mxCell>
        <mxCell id="m1fZNd1MBSAcWRnVujyi-4" value="Wranling&lt;br&gt;(Cleaning)" style="rhombus;whiteSpace=wrap;html=1;" vertex="1" parent="RoITaQhxtd_KHU8ortIy-1">
          <mxGeometry x="340" y="391.25" width="120" height="87.5" as="geometry" />
        </mxCell>
        <mxCell id="m1fZNd1MBSAcWRnVujyi-29" style="edgeStyle=orthogonalEdgeStyle;rounded=0;orthogonalLoop=1;jettySize=auto;html=1;exitX=0.145;exitY=1;exitDx=0;exitDy=-4.35;exitPerimeter=0;entryX=0.5;entryY=0;entryDx=0;entryDy=0;" edge="1" parent="RoITaQhxtd_KHU8ortIy-1" source="m1fZNd1MBSAcWRnVujyi-6" target="m1fZNd1MBSAcWRnVujyi-8">
          <mxGeometry relative="1" as="geometry" />
        </mxCell>
        <mxCell id="m1fZNd1MBSAcWRnVujyi-30" style="edgeStyle=orthogonalEdgeStyle;rounded=0;orthogonalLoop=1;jettySize=auto;html=1;exitX=0.5;exitY=1;exitDx=0;exitDy=0;exitPerimeter=0;entryX=0.5;entryY=0;entryDx=0;entryDy=0;" edge="1" parent="RoITaQhxtd_KHU8ortIy-1" source="m1fZNd1MBSAcWRnVujyi-6" target="m1fZNd1MBSAcWRnVujyi-7">
          <mxGeometry relative="1" as="geometry" />
        </mxCell>
        <mxCell id="m1fZNd1MBSAcWRnVujyi-31" style="edgeStyle=orthogonalEdgeStyle;rounded=0;orthogonalLoop=1;jettySize=auto;html=1;exitX=0.855;exitY=1;exitDx=0;exitDy=-4.35;exitPerimeter=0;entryX=0.5;entryY=0;entryDx=0;entryDy=0;" edge="1" parent="RoITaQhxtd_KHU8ortIy-1" source="m1fZNd1MBSAcWRnVujyi-6" target="m1fZNd1MBSAcWRnVujyi-16">
          <mxGeometry relative="1" as="geometry" />
        </mxCell>
        <mxCell id="m1fZNd1MBSAcWRnVujyi-6" value="Data" style="shape=cylinder3;whiteSpace=wrap;html=1;boundedLbl=1;backgroundOutline=1;size=15;" vertex="1" parent="RoITaQhxtd_KHU8ortIy-1">
          <mxGeometry x="370" y="510" width="60" height="80" as="geometry" />
        </mxCell>
        <mxCell id="m1fZNd1MBSAcWRnVujyi-35" style="edgeStyle=orthogonalEdgeStyle;rounded=0;orthogonalLoop=1;jettySize=auto;html=1;exitX=0.5;exitY=1;exitDx=0;exitDy=0;entryX=0.75;entryY=0;entryDx=0;entryDy=0;" edge="1" parent="RoITaQhxtd_KHU8ortIy-1" source="m1fZNd1MBSAcWRnVujyi-7" target="m1fZNd1MBSAcWRnVujyi-10">
          <mxGeometry relative="1" as="geometry" />
        </mxCell>
        <mxCell id="m1fZNd1MBSAcWRnVujyi-7" value="Validation" style="rounded=1;whiteSpace=wrap;html=1;" vertex="1" parent="RoITaQhxtd_KHU8ortIy-1">
          <mxGeometry x="360" y="640" width="80" height="40" as="geometry" />
        </mxCell>
        <mxCell id="m1fZNd1MBSAcWRnVujyi-33" style="edgeStyle=orthogonalEdgeStyle;rounded=0;orthogonalLoop=1;jettySize=auto;html=1;exitX=0.5;exitY=1;exitDx=0;exitDy=0;entryX=0.5;entryY=0;entryDx=0;entryDy=0;" edge="1" parent="RoITaQhxtd_KHU8ortIy-1" source="m1fZNd1MBSAcWRnVujyi-8" target="m1fZNd1MBSAcWRnVujyi-10">
          <mxGeometry relative="1" as="geometry" />
        </mxCell>
        <mxCell id="m1fZNd1MBSAcWRnVujyi-8" value="Train" style="rounded=1;whiteSpace=wrap;html=1;" vertex="1" parent="RoITaQhxtd_KHU8ortIy-1">
          <mxGeometry x="240" y="640" width="80" height="40" as="geometry" />
        </mxCell>
        <mxCell id="m1fZNd1MBSAcWRnVujyi-38" style="edgeStyle=orthogonalEdgeStyle;rounded=0;orthogonalLoop=1;jettySize=auto;html=1;exitX=1;exitY=0.5;exitDx=0;exitDy=0;entryX=0;entryY=0.5;entryDx=0;entryDy=0;" edge="1" parent="RoITaQhxtd_KHU8ortIy-1" source="m1fZNd1MBSAcWRnVujyi-9" target="m1fZNd1MBSAcWRnVujyi-18">
          <mxGeometry relative="1" as="geometry" />
        </mxCell>
        <mxCell id="m1fZNd1MBSAcWRnVujyi-9" value="Model Evaluation" style="rounded=0;whiteSpace=wrap;html=1;" vertex="1" parent="RoITaQhxtd_KHU8ortIy-1">
          <mxGeometry x="400" y="800" width="120" height="40" as="geometry" />
        </mxCell>
        <mxCell id="m1fZNd1MBSAcWRnVujyi-37" style="edgeStyle=orthogonalEdgeStyle;rounded=0;orthogonalLoop=1;jettySize=auto;html=1;exitX=1;exitY=0.5;exitDx=0;exitDy=0;entryX=0;entryY=0.5;entryDx=0;entryDy=0;" edge="1" parent="RoITaQhxtd_KHU8ortIy-1" source="m1fZNd1MBSAcWRnVujyi-10" target="m1fZNd1MBSAcWRnVujyi-9">
          <mxGeometry relative="1" as="geometry" />
        </mxCell>
        <mxCell id="m1fZNd1MBSAcWRnVujyi-10" value="Model Traning" style="rounded=0;whiteSpace=wrap;html=1;" vertex="1" parent="RoITaQhxtd_KHU8ortIy-1">
          <mxGeometry x="240" y="800" width="120" height="40" as="geometry" />
        </mxCell>
        <mxCell id="m1fZNd1MBSAcWRnVujyi-40" style="edgeStyle=orthogonalEdgeStyle;rounded=0;orthogonalLoop=1;jettySize=auto;html=1;exitX=1;exitY=0.5;exitDx=0;exitDy=0;entryX=0.5;entryY=1;entryDx=0;entryDy=0;" edge="1" parent="RoITaQhxtd_KHU8ortIy-1" source="m1fZNd1MBSAcWRnVujyi-11" target="m1fZNd1MBSAcWRnVujyi-13">
          <mxGeometry relative="1" as="geometry" />
        </mxCell>
        <mxCell id="m1fZNd1MBSAcWRnVujyi-11" value="Model Packaging" style="rounded=0;whiteSpace=wrap;html=1;" vertex="1" parent="RoITaQhxtd_KHU8ortIy-1">
          <mxGeometry x="718.5" y="800" width="120" height="40" as="geometry" />
        </mxCell>
        <mxCell id="m1fZNd1MBSAcWRnVujyi-46" style="edgeStyle=orthogonalEdgeStyle;rounded=0;orthogonalLoop=1;jettySize=auto;html=1;exitX=0;exitY=0.5;exitDx=0;exitDy=0;entryX=0.5;entryY=0;entryDx=0;entryDy=0;" edge="1" parent="RoITaQhxtd_KHU8ortIy-1" source="m1fZNd1MBSAcWRnVujyi-12" target="m1fZNd1MBSAcWRnVujyi-4">
          <mxGeometry relative="1" as="geometry" />
        </mxCell>
        <mxCell id="m1fZNd1MBSAcWRnVujyi-12" value="Monitoring&amp;nbsp;&lt;br&gt;&amp;amp; Logging" style="whiteSpace=wrap;html=1;aspect=fixed;" vertex="1" parent="RoITaQhxtd_KHU8ortIy-1">
          <mxGeometry x="1040" y="357.5" width="80" height="80" as="geometry" />
        </mxCell>
        <mxCell id="m1fZNd1MBSAcWRnVujyi-41" style="edgeStyle=orthogonalEdgeStyle;rounded=0;orthogonalLoop=1;jettySize=auto;html=1;exitX=0.5;exitY=0;exitDx=0;exitDy=0;entryX=0.5;entryY=1;entryDx=0;entryDy=0;" edge="1" parent="RoITaQhxtd_KHU8ortIy-1" source="m1fZNd1MBSAcWRnVujyi-13" target="m1fZNd1MBSAcWRnVujyi-14">
          <mxGeometry relative="1" as="geometry" />
        </mxCell>
        <mxCell id="m1fZNd1MBSAcWRnVujyi-13" value="Model" style="whiteSpace=wrap;html=1;aspect=fixed;" vertex="1" parent="RoITaQhxtd_KHU8ortIy-1">
          <mxGeometry x="1040" y="720" width="80" height="80" as="geometry" />
        </mxCell>
        <mxCell id="m1fZNd1MBSAcWRnVujyi-42" style="edgeStyle=orthogonalEdgeStyle;rounded=0;orthogonalLoop=1;jettySize=auto;html=1;exitX=1;exitY=0.5;exitDx=0;exitDy=0;" edge="1" parent="RoITaQhxtd_KHU8ortIy-1" source="m1fZNd1MBSAcWRnVujyi-14">
          <mxGeometry relative="1" as="geometry">
            <mxPoint x="1200" y="600" as="targetPoint" />
          </mxGeometry>
        </mxCell>
        <mxCell id="m1fZNd1MBSAcWRnVujyi-14" value="Build &amp;amp; Integration Testing" style="whiteSpace=wrap;html=1;aspect=fixed;" vertex="1" parent="RoITaQhxtd_KHU8ortIy-1">
          <mxGeometry x="1040" y="560" width="80" height="80" as="geometry" />
        </mxCell>
        <mxCell id="m1fZNd1MBSAcWRnVujyi-45" style="edgeStyle=orthogonalEdgeStyle;rounded=0;orthogonalLoop=1;jettySize=auto;html=1;exitX=0.5;exitY=0;exitDx=0;exitDy=0;entryX=1;entryY=0.5;entryDx=0;entryDy=0;" edge="1" parent="RoITaQhxtd_KHU8ortIy-1" source="m1fZNd1MBSAcWRnVujyi-15" target="m1fZNd1MBSAcWRnVujyi-12">
          <mxGeometry relative="1" as="geometry" />
        </mxCell>
        <mxCell id="m1fZNd1MBSAcWRnVujyi-15" value="Deployment" style="whiteSpace=wrap;html=1;aspect=fixed;" vertex="1" parent="RoITaQhxtd_KHU8ortIy-1">
          <mxGeometry x="1201" y="560" width="80" height="80" as="geometry" />
        </mxCell>
        <mxCell id="m1fZNd1MBSAcWRnVujyi-36" style="edgeStyle=orthogonalEdgeStyle;rounded=0;orthogonalLoop=1;jettySize=auto;html=1;exitX=0.5;exitY=1;exitDx=0;exitDy=0;entryX=0.5;entryY=0;entryDx=0;entryDy=0;" edge="1" parent="RoITaQhxtd_KHU8ortIy-1" source="m1fZNd1MBSAcWRnVujyi-16" target="m1fZNd1MBSAcWRnVujyi-9">
          <mxGeometry relative="1" as="geometry" />
        </mxCell>
        <mxCell id="m1fZNd1MBSAcWRnVujyi-16" value="Test" style="rounded=1;whiteSpace=wrap;html=1;" vertex="1" parent="RoITaQhxtd_KHU8ortIy-1">
          <mxGeometry x="480" y="640" width="80" height="40" as="geometry" />
        </mxCell>
        <mxCell id="m1fZNd1MBSAcWRnVujyi-39" style="edgeStyle=orthogonalEdgeStyle;rounded=0;orthogonalLoop=1;jettySize=auto;html=1;exitX=1;exitY=0.5;exitDx=0;exitDy=0;entryX=0;entryY=0.5;entryDx=0;entryDy=0;" edge="1" parent="RoITaQhxtd_KHU8ortIy-1" source="m1fZNd1MBSAcWRnVujyi-18" target="m1fZNd1MBSAcWRnVujyi-11">
          <mxGeometry relative="1" as="geometry" />
        </mxCell>
        <mxCell id="m1fZNd1MBSAcWRnVujyi-18" value="Model Testing" style="rounded=0;whiteSpace=wrap;html=1;" vertex="1" parent="RoITaQhxtd_KHU8ortIy-1">
          <mxGeometry x="560" y="800" width="120" height="40" as="geometry" />
        </mxCell>
        <mxCell id="m1fZNd1MBSAcWRnVujyi-50" value="&lt;div style=&quot;text-align: left; font-size: 15px;&quot;&gt;&lt;span style=&quot;font-size: 15px;&quot;&gt;Data Enginnering&lt;/span&gt;&lt;/div&gt;" style="text;html=1;strokeColor=none;fillColor=none;align=center;verticalAlign=middle;whiteSpace=wrap;rounded=0;fontStyle=1;fontSize=15;" vertex="1" parent="RoITaQhxtd_KHU8ortIy-1">
          <mxGeometry x="40" y="290" width="130" height="30" as="geometry" />
        </mxCell>
        <mxCell id="m1fZNd1MBSAcWRnVujyi-51" value="&lt;div style=&quot;text-align: left ; font-size: 15px&quot;&gt;&lt;span style=&quot;font-size: 15px&quot;&gt;Model Enginnering&lt;/span&gt;&lt;/div&gt;" style="text;html=1;strokeColor=none;fillColor=none;align=center;verticalAlign=middle;whiteSpace=wrap;rounded=0;fontStyle=1;fontSize=15;" vertex="1" parent="RoITaQhxtd_KHU8ortIy-1">
          <mxGeometry x="80" y="780" width="150" height="30" as="geometry" />
        </mxCell>
        <mxCell id="m1fZNd1MBSAcWRnVujyi-52" value="Model Deployment" style="text;html=1;strokeColor=none;fillColor=none;align=center;verticalAlign=middle;whiteSpace=wrap;rounded=0;fontStyle=1;fontSize=15;" vertex="1" parent="RoITaQhxtd_KHU8ortIy-1">
          <mxGeometry x="920" y="270" width="140" height="30" as="geometry" />
        </mxCell>
        <mxCell id="m1fZNd1MBSAcWRnVujyi-53" value="Raw data" style="text;html=1;strokeColor=none;fillColor=none;align=center;verticalAlign=middle;whiteSpace=wrap;rounded=0;fontSize=10;" vertex="1" parent="RoITaQhxtd_KHU8ortIy-1">
          <mxGeometry x="110" y="407.5" width="75" height="30" as="geometry" />
        </mxCell>
        <mxCell id="m1fZNd1MBSAcWRnVujyi-54" value="Data Versioning" style="text;html=1;strokeColor=none;fillColor=none;align=center;verticalAlign=middle;whiteSpace=wrap;rounded=0;fontSize=10;" vertex="1" parent="RoITaQhxtd_KHU8ortIy-1">
          <mxGeometry x="440" y="520" width="80" height="30" as="geometry" />
        </mxCell>
        <mxCell id="m1fZNd1MBSAcWRnVujyi-55" value="Feature Enginnering&lt;br&gt;Hyperparameters tuning" style="text;html=1;strokeColor=none;fillColor=none;align=center;verticalAlign=middle;whiteSpace=wrap;rounded=0;fontSize=10;" vertex="1" parent="RoITaQhxtd_KHU8ortIy-1">
          <mxGeometry x="240" y="850" width="120" height="30" as="geometry" />
        </mxCell>
        <mxCell id="m1fZNd1MBSAcWRnVujyi-57" value="Best model selection&lt;br&gt;Model performance metrics" style="text;html=1;strokeColor=none;fillColor=none;align=center;verticalAlign=middle;whiteSpace=wrap;rounded=0;fontSize=10;" vertex="1" parent="RoITaQhxtd_KHU8ortIy-1">
          <mxGeometry x="395" y="850" width="130" height="30" as="geometry" />
        </mxCell>
        <mxCell id="m1fZNd1MBSAcWRnVujyi-58" value="Model format" style="text;html=1;strokeColor=none;fillColor=none;align=center;verticalAlign=middle;whiteSpace=wrap;rounded=0;fontSize=10;" vertex="1" parent="RoITaQhxtd_KHU8ortIy-1">
          <mxGeometry x="713.5" y="850" width="130" height="30" as="geometry" />
        </mxCell>
        <mxCell id="m1fZNd1MBSAcWRnVujyi-59" value="Model Acceptance Test" style="text;html=1;strokeColor=none;fillColor=none;align=center;verticalAlign=middle;whiteSpace=wrap;rounded=0;fontSize=10;" vertex="1" parent="RoITaQhxtd_KHU8ortIy-1">
          <mxGeometry x="560" y="850" width="130" height="30" as="geometry" />
        </mxCell>
        <mxCell id="m1fZNd1MBSAcWRnVujyi-60" value="Model Serving&lt;br&gt;Docker&lt;br&gt;K8s" style="text;html=1;strokeColor=none;fillColor=none;align=center;verticalAlign=middle;whiteSpace=wrap;rounded=0;fontSize=10;" vertex="1" parent="RoITaQhxtd_KHU8ortIy-1">
          <mxGeometry x="1080" y="670" width="80" height="30" as="geometry" />
        </mxCell>
        <mxCell id="m1fZNd1MBSAcWRnVujyi-62" value="Viettel - QTPTDL" style="text;html=1;strokeColor=none;fillColor=none;align=center;verticalAlign=middle;whiteSpace=wrap;rounded=0;fontSize=20;fontStyle=1;fontColor=#FF0000;" vertex="1" parent="RoITaQhxtd_KHU8ortIy-1">
          <mxGeometry x="-20" y="170" width="220" height="20" as="geometry" />
        </mxCell>
        <mxCell id="m1fZNd1MBSAcWRnVujyi-63" value="New data" style="text;html=1;strokeColor=none;fillColor=none;align=center;verticalAlign=middle;whiteSpace=wrap;rounded=0;fontSize=10;fontColor=#000000;" vertex="1" parent="RoITaQhxtd_KHU8ortIy-1">
          <mxGeometry x="690" y="347.5" width="60" height="30" as="geometry" />
        </mxCell>
      </root>
    </mxGraphModel>
  </diagram>
</mxfile>
